<svg xmlns:dc="http://purl.org/dc/elements/1.1/" xmlns:cc="http://creativecommons.org/ns#" xmlns:rdf="http://www.w3.org/1999/02/22-rdf-syntax-ns#" xmlns:svg="http://www.w3.org/2000/svg" xmlns="http://www.w3.org/2000/svg" viewBox="0 0 280 280" fill="none"><metadata><rdf:RDF><cc:Work><dc:format>image/svg+xml</dc:format><dc:type rdf:resource="http://purl.org/dc/dcmitype/StillImage"/><dc:title>Avataaars</dc:title><dc:creator><cc:Agent><dc:title>Pablo Stanley</dc:title></cc:Agent></dc:creator><dc:source>https://avataaars.com/</dc:source><cc:license rdf:resource="https://avataaars.com/"/><dc:contributor><cc:Agent><dc:title>Florian Körner</dc:title></cc:Agent></dc:contributor></cc:Work></rdf:RDF></metadata><mask id="avatarsRadiusMask"><rect width="280" height="280" rx="0" ry="0" x="0" y="0" fill="#fff"/></mask><g mask="url(#avatarsRadiusMask)"><g transform="translate(40, 36)"><path d="M100 0C69.072 0 44 25.072 44 56v6.166c-5.675.952-10 5.888-10 11.834v14c0 6.052 4.48 11.058 10.305 11.881 2.067 19.806 14.458 36.541 31.695 44.73V163h-4c-39.764 0-72 32.236-72 72v9h200v-9c0-39.764-32.236-72-72-72h-4v-18.389c17.237-8.189 29.628-24.924 31.695-44.73C161.52 99.058 166 94.052 166 88V74c0-5.946-4.325-10.882-10-11.834V56c0-30.928-25.072-56-56-56z" fill="#F9D562"/><path d="M76 144.611v8A55.79 55.79 0 00100 158a55.789 55.789 0 0024-5.389v-8A55.789 55.789 0 01100 150a55.79 55.79 0 01-24-5.389z" fill="#000" fill-opacity=".1"/></g><g transform="translate(8, 170)"><path d="M132.5 54c18.502 0 33.5-9.626 33.5-21.5a14.08 14.08 0 00-.376-3.232C202.76 32.138 232 63.18 232 101.052V110H32v-8.948c0-38.217 29.775-69.48 67.393-71.855A14.108 14.108 0 0099 32.5C99 44.374 113.998 54 132.5 54z" fill="#FF5C5C"/><g transform="translate(77, 58)"><path d="M63.837 17c-.286.65-.552 1.302-.818 1.953L63 19c.668-.048 1.334-.101 2-.158A18.705 18.705 0 0063.837 17zm-10.622.298c.2-.06.422-.127.708-.298.145.423.256 3.288-1.355 2.976-.92-.177-.506-1.764-.246-2.091.334-.42.585-.495.893-.587z" fill="#fff"/><path fill-rule="evenodd" clip-rule="evenodd" d="M74.637 16.948c-1.177-5.27-4.032-8.977-8.452-11.937-3.357-2.248-6.511-2.233-10.467-1.75-3.246.396-6.35 1.297-9.205 2.935-5.036 2.89-7.914 6.745-8.602 12.549-.276 2.322-.319 5.104.51 7.32.483 1.293 1.336 2.332 2.245 3.35.153.172.495.472.862.794.598.523 1.261 1.105 1.286 1.287.117.865-2.198 3.397-2.89 4.154l-.129.141c-.22.244-.727.594-1.298.988-1.019.703-2.244 1.548-2.426 2.196-.826 2.933 5.827 1.892 7.445 1.638l.01-.002c1.548-.242 3.107-.538 4.613-.976a19.86 19.86 0 002.068-.727c.561-.233 1.176-.696 1.785-1.155.692-.52 1.377-1.036 1.971-1.207.567-.163 1.337-.072 2.105.02.596.07 1.19.14 1.686.091a24.961 24.961 0 004.498-.87c2.62-.76 4.975-2.067 7.055-3.835 4.426-3.76 6.61-9.242 5.33-15.004zm-5.131 6.988c-.616.169-1.356-1.24-1.079-1.72.77-1.333 2.165 1.42 1.079 1.72zm-2.218-9.374c-.267 1.1.123 2.947.397 4.052.088.36.433.47.748.427.548-.076.444-.565.357-.976a1.712 1.712 0 01-.056-.397c.04-.748.107-2.639-.172-3.32-.513-1.254-.975-1.014-1.274.213zm-.65 8.33c-.582.343-.855-.288-1.051-.741a2.183 2.183 0 00-.156-.32c-.255-.382-.274-.588-.287-.72-.016-.179-.02-.222-.587-.388-1.77-.52-1.803.7-1.838 1.937-.02.722-.04 1.45-.405 1.842-1.778 1.91-.577-3.679-.361-4.682l.022-.106c.037-.174.079-.416.128-.699v-.001c.338-1.952 1.014-5.855 2.666-3.109.488.812 2.71 6.49 1.868 6.988zm-10.367-.954c.595.604 3.693.22 4.024-.34.685-1.177-1.85-.849-2.774-.73a5.404 5.404 0 01-.288.034c.04-.753.124-1.51.208-2.269.118-1.053.235-2.107.232-3.153l.003-.175c.016-.616.05-1.936-.961-1.206-.348.25-.338 1.19-.331 1.818.002.193.004.356-.005.462-.02.233-.077.593-.146 1.021-.24 1.512-.616 3.874.038 4.538zm-.775-2.78c-1.425 5.732-6.978 2.638-4.491-1.713.459-.803.83-.98 1.407-1.256.217-.104.462-.221.752-.39.05-.03.053-.14.057-.276.009-.275.02-.65.43-.644 1.76.027 2.183 2.936 1.845 4.28zm-7 .833c-.035.873-.133 3.305.973 2.999.761-.21.546-9.978-.331-9.984-.916-.005-.744 1.777-.594 3.325.097 1.004.184 1.91-.04 2.166-.112.127-.515.094-.844.067a2.134 2.134 0 00-.407-.012c-1.14.212-1.89.093-2.24-.606-.094-.187-.099-.706-.103-1.282-.011-1.331-.025-2.967-1.155-1.508.015.738.027 1.476.035 2.213.336.715.21 1.15-.376 1.306-.02.307.154.582.278.778.065.104.117.186.119.24.005.14-.009.373-.025.657-.073 1.262-.205 3.543.925 3.406.712-.086.486-2.288.368-3.43a8.686 8.686 0 01-.051-.6c.301.007.606.021.913.035.856.04 1.726.08 2.562-.027.001.05-.003.14-.007.257z" fill="#fff"/></g></g><g transform="translate(86, 134)"><path fill-rule="evenodd" clip-rule="evenodd" d="M35.118 29.872C36.176 20.38 44.226 13 54 13c9.804 0 17.874 7.426 18.892 16.96.082.767-.775 2.04-1.85 2.04H37.088c-1.08 0-2.075-1.178-1.97-2.128z" fill="#000" fill-opacity=".7"/><path d="M69.586 32H38.414c1.306-4.617 5.55-8 10.586-8 1.8 0 3.5.433 5 1.2 1.5-.767 3.2-1.2 5-1.2 5.035 0 9.28 3.383 10.586 8z" fill="#FF4F6D"/><path d="M66.567 17.75c-.493.162-1.02.25-1.567.25H44a4.98 4.98 0 01-2.243-.53A18.923 18.923 0 0154 13c4.818 0 9.218 1.794 12.567 4.75z" fill="#fff"/></g><g transform="translate(112, 122)"><path fill-rule="evenodd" clip-rule="evenodd" d="M16 8c0 4.418 5.373 8 12 8s12-3.582 12-8" fill="#000" fill-opacity=".16"/></g><g transform="translate(84, 90)"><circle cx="82" cy="22" r="12" fill="#fff"/><circle cx="82" cy="22" r="6" fill="#000" fill-opacity=".7"/><path fill-rule="evenodd" clip-rule="evenodd" d="M16.16 25.447C18.007 21.648 22.164 19 26.998 19c4.816 0 8.961 2.63 10.817 6.407.552 1.122-.233 2.04-1.024 1.36-2.451-2.107-5.932-3.423-9.793-3.423-3.74 0-7.124 1.235-9.56 3.228-.891.728-1.818-.014-1.278-1.125z" fill="#000" fill-opacity=".6"/></g><g transform="translate(84, 82)"><path d="M38.028 5.591c-1.48 8.389-14.09 14.18-23.238 10.432-1.015-.416-2.19.031-2.627.999-.436.968.033 2.09 1.048 2.505 11.444 4.69 26.835-2.38 28.762-13.303.183-1.039-.551-2.023-1.64-2.197-1.09-.175-2.121.525-2.305 1.564zm35.945 0c1.48 8.389 14.09 14.18 23.238 10.432 1.014-.416 2.19.031 2.627.999.436.968-.033 2.09-1.048 2.505-11.444 4.69-26.835-2.38-28.762-13.303-.183-1.039.551-2.023 1.64-2.197 1.09-.175 2.121.525 2.305 1.564z" fill="#000" fill-opacity=".6"/></g><g transform="translate(7, 0)"><path fill-rule="evenodd" clip-rule="evenodd" d="M167.309 35.006c-20.188-11.7-40.18-9.784-55.272-5.976-15.092 3.808-24.02 14.621-31.68 30.618-3.761 7.855-5.991 17.143-6.334 25.833-.135 3.412.325 6.934 1.245 10.22.337 1.205 2.155 5.386 2.654 2.008.166-1.125-.442-2.676-.5-3.871-.078-1.569.005-3.157.112-4.723.2-2.928.722-5.8 1.65-8.59 1.328-3.988 3.017-8.312 5.603-11.677 6.401-8.328 17.482-8.802 26.279-13.384-.763 1.405-3.706 3.68-2.687 5.263.705 1.094 3.37.762 4.643.727 3.349-.092 6.713-.674 10.021-1.147 5.213-.745 10.098-2.255 15.004-4.089 4.016-1.502 8.603-2.892 11.622-6.078 4.871 5.048 11.141 9.794 17.401 13.003 5.618 2.88 14.679 4.318 18.113 10.158 4.065 6.914 2.195 15.406 3.436 22.9.472 2.85 1.545 2.786 2.132.237.997-4.33 1.468-8.828 1.151-13.279-.718-10.048-4.405-36.453-24.593-48.153z" fill="#E8E1E1"/></g></g></svg>