<svg xmlns:dc="http://purl.org/dc/elements/1.1/" xmlns:cc="http://creativecommons.org/ns#" xmlns:rdf="http://www.w3.org/1999/02/22-rdf-syntax-ns#" xmlns:svg="http://www.w3.org/2000/svg" xmlns="http://www.w3.org/2000/svg" viewBox="0 0 280 280" fill="none"><metadata><rdf:RDF><cc:Work><dc:format>image/svg+xml</dc:format><dc:type rdf:resource="http://purl.org/dc/dcmitype/StillImage"/><dc:title>Avataaars</dc:title><dc:creator><cc:Agent><dc:title>Pablo Stanley</dc:title></cc:Agent></dc:creator><dc:source>https://avataaars.com/</dc:source><cc:license rdf:resource="https://avataaars.com/"/><dc:contributor><cc:Agent><dc:title>Florian Körner</dc:title></cc:Agent></dc:contributor></cc:Work></rdf:RDF></metadata><mask id="avatarsRadiusMask"><rect width="280" height="280" rx="0" ry="0" x="0" y="0" fill="#fff"/></mask><g mask="url(#avatarsRadiusMask)"><g transform="translate(40, 36)"><path d="M100 0C69.072 0 44 25.072 44 56v6.166c-5.675.952-10 5.888-10 11.834v14c0 6.052 4.48 11.058 10.305 11.881 2.067 19.806 14.458 36.541 31.695 44.73V163h-4c-39.764 0-72 32.236-72 72v9h200v-9c0-39.764-32.236-72-72-72h-4v-18.389c17.237-8.189 29.628-24.924 31.695-44.73C161.52 99.058 166 94.052 166 88V74c0-5.946-4.325-10.882-10-11.834V56c0-30.928-25.072-56-56-56z" fill="#AE5D29"/><path d="M76 144.611v8A55.79 55.79 0 00100 158a55.789 55.789 0 0024-5.389v-8A55.789 55.789 0 01100 150a55.79 55.79 0 01-24-5.389z" fill="#000" fill-opacity=".1"/></g><g transform="translate(8, 170)"><path d="M132.5 51.828c18.502 0 33.5-9.617 33.5-21.48 0-.353-.013-.704-.04-1.053 36.976 3.03 66.04 34 66.04 71.757V110H32v-8.948c0-38.1 29.592-69.287 67.045-71.833-.03.374-.045.75-.045 1.129 0 11.863 14.998 21.48 33.5 21.48z" fill="#FFDEB5"/><path d="M132.5 58.761c21.89 0 39.635-12.05 39.635-26.913 0-.603-.029-1.2-.086-1.793a72.056 72.056 0 00-6.089-.76c.027.349.04.7.04 1.053 0 11.863-14.998 21.48-33.5 21.48-18.502 0-33.5-9.617-33.5-21.48 0-.379.015-.755.045-1.128-2.05.139-4.077.364-6.077.672a18.592 18.592 0 00-.103 1.956c0 14.864 17.745 26.913 39.635 26.913z" fill="#000" fill-opacity=".08"/></g><g transform="translate(86, 134)"><path fill-rule="evenodd" clip-rule="evenodd" d="M40 15c0 7.732 6.268 14 14 14s14-6.268 14-14" fill="#000" fill-opacity=".7"/></g><g transform="translate(112, 122)"><path fill-rule="evenodd" clip-rule="evenodd" d="M16 8c0 4.418 5.373 8 12 8s12-3.582 12-8" fill="#000" fill-opacity=".16"/></g><g transform="translate(84, 90)"><path d="M25 27s-6 7.27-6 11.27a6 6 0 1012 0c0-4-6-11.27-6-11.27z" fill="#92D9FF"/><path d="M36 22a6 6 0 11-12 0 6 6 0 0112 0zm52 0a6 6 0 11-12 0 6 6 0 0112 0z" fill="#000" fill-opacity=".6"/></g><g transform="translate(84, 82)"><path fill-rule="evenodd" clip-rule="evenodd" d="M44.095 17.125c.004-.009.004-.009 0 0zM19.284 5.005c-2.368-.266-4.858.497-6.427 2.434-.59.728-1.553 2.48-1.509 3.417.017.356.225.375 1.124.59 1.646.392 4.5-1.114 6.355-.972 2.582.198 5.046 1.395 7.283 2.679 3.838 2.202 8.354 6.84 13.093 6.598.353-.018 5.42-1.739 4.41-2.723-.316-.484-3.034-1.128-3.501-1.361-2.172-1.084-4.367-2.448-6.443-3.718-4.528-2.772-8.944-6.338-14.385-6.944zm48.746 12.12c-.004-.009-.004-.009 0 0zm24.876-12.12c2.367-.266 4.857.497 6.426 2.434.59.728 1.554 2.48 1.509 3.417-.017.356-.225.375-1.124.59-1.645.392-4.5-1.114-6.355-.972-2.582.198-5.046 1.395-7.282 2.679-3.839 2.202-8.355 6.84-13.093 6.598-.353-.018-5.42-1.739-4.411-2.723.317-.484 3.034-1.128 3.502-1.361 2.171-1.084 4.367-2.448 6.442-3.718 4.528-2.772 8.945-6.338 14.386-6.944z" fill="#000" fill-opacity=".6"/></g><g transform="translate(7, 0)"><path d="M78 98c-.327 1.223-1.653 1.488-2 0-.719-10.298 0-62.274 57-63 57-.726 57.719 52.702 57 63-.347 1.488-1.673 1.223-2 0 .463-1.554-3.296-28.752-13-36-1.759-1.224-7.247-2.39-14.641-3.261L164 50l-6.982 8.379c-7.032-.694-15.361-1.127-23.705-1.133C114.008 57.232 94.618 59.483 91 62c-9.704 7.248-13.463 34.446-13 36z" fill="#724133"/></g><g transform="translate(69, 85)"><path fill-rule="evenodd" clip-rule="evenodd" d="M39.25 9c-21.127 0-28.632 5.172-29.318 5.857A2.93 2.93 0 007 17.786v2.928a2.93 2.93 0 002.932 2.929s5.864 0 5.864 2.928c0 .19.012.337.035.447a62.957 62.957 0 00-.044 2.482c0 12.836 8.29 20.5 22.179 20.5h2.75c14.68 0 24.93-8.431 24.93-20.5 0-1.44-.036-2.875-.154-4.28l1.456-.727a7.739 7.739 0 011.877-.642c1.84-.386 3.922-.23 5.946.28.726.183 1.25.36 1.493.458l1.255.507c-.127 1.444-.164 2.921-.164 4.404 0 12.836 8.291 20.5 22.18 20.5h2.749c14.68 0 24.929-8.431 24.929-20.5 0-.83-.011-1.66-.044-2.483.023-.109.036-.256.036-.446 0-2.928 5.863-2.928 5.863-2.928A2.928 2.928 0 00136 20.714v-2.928a2.928 2.928 0 00-2.932-2.929C132.382 14.172 124.877 9 103.75 9h-2.932c-1.831 0-3.52.072-5.079.211-9.379.555-14.462 2.187-19.633 4.759a16.54 16.54 0 01-4.527.881c-2.361-.077-4.38-.778-4.774-.92l-.415-.21-.007-.004c-4.888-2.446-8.35-4.179-20.545-4.612A60.677 60.677 0 0042.182 9H39.25zm-1.117 5.863a192.746 192.746 0 017.599.09c14.05.845 14.05 6.956 14.05 14.547 0 8.622-7.84 14.643-19.066 14.643h-2.75C24.48 44.143 21.65 36.18 21.65 29.5c0-8.006 0-14.365 16.483-14.637zm26.11 4.353l.088.036-.063.031a49.3 49.3 0 00-.026-.067zm14.512.007l-.067.027.05.02.017-.047zm16.705-4.124c2.404-.16 5.134-.242 8.29-.242.378 0 .751.002 1.118.006 16.482.272 16.482 6.632 16.482 14.637 0 8.622-7.84 14.643-19.066 14.643h-2.75c-13.483 0-16.315-7.963-16.315-14.643 0-7.25 0-13.15 12.241-14.4z" fill="#000" fill-opacity=".1"/><path d="M40.716 45.071c13.747 0 21.997-7.869 21.997-17.571 0-9.705-1.284-17.571-20.531-17.571H39.25c-19.248 0-20.532 7.866-20.532 17.571 0 9.7 5.5 17.571 19.248 17.571h2.75z" fill="#000" fill-opacity=".7"/><path d="M40.716 45.071c13.747 0 21.997-7.869 21.997-17.571 0-9.705-1.284-17.571-20.531-17.571H39.25c-19.248 0-20.532 7.866-20.532 17.571 0 9.7 5.5 17.571 19.248 17.571h2.75z" fill="url(#Top/_Resources/Wayfarers__paint0_linear)" style="mix-blend-mode:screen"/><path d="M102.284 45.071c13.75 0 21.997-7.869 21.997-17.571 0-9.705-1.287-17.571-20.531-17.571h-2.932c-19.247 0-20.531 7.866-20.531 17.571 0 9.7 5.5 17.571 19.247 17.571h2.75z" fill="#000" fill-opacity=".7"/><path d="M102.284 45.071c13.75 0 21.997-7.869 21.997-17.571 0-9.705-1.287-17.571-20.531-17.571h-2.932c-19.247 0-20.531 7.866-20.531 17.571 0 9.7 5.5 17.571 19.247 17.571h2.75z" fill="url(#Top/_Resources/Wayfarers__paint1_linear)" style="mix-blend-mode:screen"/><path fill-rule="evenodd" clip-rule="evenodd" d="M39.25 7c-21.127 0-28.632 5.172-29.318 5.857A2.93 2.93 0 007 15.786v2.928a2.93 2.93 0 002.932 2.929s5.864 0 5.864 2.928c0 .19.012.337.035.447a62.957 62.957 0 00-.044 2.482c0 12.836 8.29 20.5 22.179 20.5h2.75c14.68 0 24.93-8.431 24.93-20.5 0-1.44-.036-2.875-.154-4.28l1.456-.727a7.739 7.739 0 011.877-.642c1.84-.386 3.922-.23 5.946.28.726.183 1.25.36 1.493.458l1.255.507c-.127 1.444-.164 2.921-.164 4.404 0 12.836 8.291 20.5 22.18 20.5h2.749c14.68 0 24.929-8.431 24.929-20.5 0-.83-.011-1.66-.044-2.483.023-.109.036-.256.036-.446 0-2.928 5.863-2.928 5.863-2.928A2.928 2.928 0 00136 18.714v-2.928a2.928 2.928 0 00-2.932-2.929C132.382 12.172 124.877 7 103.75 7h-2.932c-1.831 0-3.52.072-5.079.211-9.379.555-14.462 2.187-19.633 4.759a16.54 16.54 0 01-4.527.881c-2.361-.077-4.38-.778-4.774-.92l-.415-.21-.007-.004c-4.888-2.446-8.35-4.179-20.545-4.612A60.677 60.677 0 0042.182 7H39.25zm-1.117 5.863a192.746 192.746 0 017.599.09c14.05.845 14.05 6.956 14.05 14.547 0 8.622-7.84 14.643-19.066 14.643h-2.75C24.48 42.143 21.65 34.18 21.65 27.5c0-8.006 0-14.365 16.483-14.637zm26.11 4.353l.088.036-.063.031a49.3 49.3 0 00-.026-.067zm14.512.007l-.067.027.05.02.017-.047zm16.705-4.124c2.404-.16 5.134-.242 8.29-.242.378 0 .751.002 1.118.006 16.482.272 16.482 6.632 16.482 14.637 0 8.622-7.84 14.643-19.066 14.643h-2.75c-13.483 0-16.315-7.963-16.315-14.643 0-7.25 0-13.15 12.241-14.4z" fill="#FFFFB1"/><defs><linearGradient id="Top/_Resources/Wayfarers__paint0_linear" x1="80.287" y1="9.929" x2="80.287" y2="45.071" gradientUnits="userSpaceOnUse"><stop stop-color="#fff" stop-opacity=".5"/><stop offset=".705" stop-opacity=".5"/></linearGradient><linearGradient id="Top/_Resources/Wayfarers__paint1_linear" x1="80.287" y1="9.929" x2="80.287" y2="45.071" gradientUnits="userSpaceOnUse"><stop stop-color="#fff" stop-opacity=".5"/><stop offset=".705" stop-opacity=".5"/></linearGradient></defs></g></g></svg>